<?xml version="1.0" encoding="UTF-8" standalone="no"?>
<svg xmlns="http://www.w3.org/2000/svg" width="1877" height="838" viewBox="0 0 1877 838">
<path d="M 541,265 533,297 529,307 528,317 524,324 523,336 514,361 510,381 510,388 513,393 567,394 567,387 561,364 561,355 558,349 558,340 553,328 552,316 Z M 541,287 548,327 553,341 554,352 557,359 557,369 562,388 516,388 515,382 518,365 528,337 528,328 533,317 534,308 Z M 1671,193 1668,206 1662,220 1662,224 1668,238 1671,254 1673,238 1679,223 1679,220 1676,216 1676,211 Z M 642,182 640,184 640,191 654,220 657,229 657,239 659,246 664,249 669,256 670,265 675,274 676,285 680,292 683,310 683,399 681,406 680,439 683,455 678,468 667,529 658,565 659,588 663,591 667,589 679,560 680,553 686,544 688,547 689,558 694,560 714,539 750,535 778,535 793,540 801,548 812,568 823,595 827,597 831,593 832,564 827,547 827,538 824,524 823,495 821,486 823,474 823,432 821,412 818,408 814,408 812,410 803,437 801,448 795,460 794,468 782,480 760,488 736,494 719,495 716,493 713,488 711,480 712,460 710,456 711,376 713,353 713,327 710,318 710,308 713,295 718,286 718,281 710,276 702,256 691,236 681,224 670,205 647,182 Z M 646,188 666,208 679,229 686,236 707,280 713,283 706,304 706,321 709,329 708,369 706,378 707,442 705,448 705,456 708,463 706,479 709,491 716,499 728,500 763,492 787,483 789,479 798,471 799,461 805,450 807,440 810,435 811,426 816,415 818,431 817,492 820,531 822,536 822,548 827,565 826,589 816,568 816,565 804,544 798,538 790,533 774,530 742,531 712,534 694,554 692,546 695,537 691,531 680,542 675,552 675,558 665,582 663,582 663,566 665,561 665,555 669,543 683,468 688,452 685,443 686,404 688,398 688,318 687,303 684,289 680,282 680,272 674,263 674,256 670,247 668,245 665,245 662,241 662,229 660,222 646,193 Z M 1224,155 1221,155 1203,175 1169,208 1131,239 1111,252 1101,256 1095,262 1088,264 1074,272 1051,279 1033,279 1086,243 1096,233 1098,229 1099,221 1096,218 1094,218 1073,232 1056,240 1021,253 996,259 984,258 975,261 951,260 941,257 934,253 927,242 922,216 918,178 915,175 912,175 909,179 898,242 893,250 880,258 858,263 843,263 835,260 822,262 814,258 797,258 771,250 726,245 723,247 724,254 735,258 756,269 772,281 779,283 784,289 785,295 790,306 790,319 788,323 787,333 778,360 778,369 784,386 787,387 791,384 803,350 817,331 835,311 841,307 859,302 878,303 882,305 884,309 884,320 886,323 885,345 887,350 885,373 885,399 888,407 886,439 889,454 887,499 891,507 892,529 889,583 882,598 882,605 885,615 890,616 894,611 895,612 895,641 892,649 892,655 895,666 901,822 902,826 906,829 909,827 911,822 913,799 919,666 923,651 920,637 921,613 925,607 927,609 931,608 934,599 933,578 925,559 924,527 926,505 929,498 928,411 932,396 930,359 932,352 933,337 932,325 936,320 938,310 949,302 965,303 976,307 985,315 987,320 994,328 1001,356 1001,364 1005,383 1008,386 1011,386 1014,383 1022,350 1022,322 1020,312 1020,298 1022,292 1024,292 1025,298 1029,301 1036,299 1040,299 1043,301 1047,309 1048,334 1045,343 1044,385 1039,390 1015,402 1015,407 1018,409 1043,408 1047,411 1047,458 1037,483 1037,493 1028,503 1026,515 1021,526 1008,544 1001,551 988,574 984,587 984,598 987,601 989,601 1010,572 1029,554 1055,540 1076,536 1096,536 1098,539 1098,555 1100,559 1104,560 1107,558 1112,549 1123,537 1135,533 1149,533 1167,538 1185,550 1200,567 1211,583 1231,623 1233,625 1237,625 1239,622 1239,602 1237,588 1231,566 1223,549 1223,546 1226,541 1219,531 1214,519 1210,515 1186,500 1169,495 1109,495 1092,499 1088,497 1088,494 1092,487 1091,478 1093,475 1093,466 1096,458 1095,418 1098,415 1115,415 1129,429 1135,440 1141,447 1153,451 1158,448 1156,436 1148,413 1147,402 1150,388 1155,379 1164,369 1164,366 1158,363 1134,370 1124,379 1109,383 1097,382 1093,376 1095,359 1095,340 1093,337 1093,332 1095,329 1095,311 1101,307 1115,302 1155,293 1174,297 1193,307 1198,305 1199,301 1184,274 1182,265 1183,250 1191,226 1204,204 1215,189 1225,168 1227,158 Z M 913,184 915,189 916,208 922,245 933,258 948,264 972,266 987,262 999,263 1017,259 1059,244 1079,234 1094,223 1095,225 1090,233 1081,241 1033,272 1020,284 1015,299 1018,340 1014,366 1010,378 1008,375 1005,351 1003,348 1003,343 997,324 990,316 989,311 983,308 978,303 959,297 948,298 936,305 933,309 933,316 927,325 928,337 927,354 925,360 927,397 923,412 924,497 921,504 919,556 928,578 930,596 928,600 924,584 919,579 916,585 916,593 920,604 916,611 915,630 918,652 914,668 911,751 906,814 901,725 900,670 896,653 900,639 899,603 896,599 889,609 887,605 887,599 894,583 896,547 896,511 895,504 891,495 894,473 894,456 891,443 893,410 889,394 892,351 889,341 891,322 888,317 888,306 883,300 879,298 863,297 841,302 831,308 809,333 800,346 793,361 793,365 787,380 785,378 782,363 792,334 795,315 794,303 788,287 783,280 775,277 759,265 730,251 735,250 743,252 768,254 799,263 812,262 820,266 836,265 847,268 868,266 883,262 892,257 900,249 902,245 Z M 1221,161 1222,163 1215,178 1190,217 1179,244 1177,258 1179,275 1184,286 1193,300 1191,301 1181,295 1163,289 1152,289 1113,298 1098,303 1091,308 1091,326 1088,333 1091,343 1089,378 1095,386 1113,387 1122,385 1131,380 1138,373 1143,373 1153,369 1157,370 1148,381 1144,390 1142,400 1143,413 1152,439 1152,446 1143,442 1140,439 1133,426 1120,412 1111,409 1102,409 1095,411 1091,415 1090,442 1092,455 1089,462 1089,473 1086,479 1087,487 1084,491 1083,497 1085,501 1088,503 1096,503 1107,500 1167,499 1183,504 1204,516 1210,522 1214,533 1221,540 1217,547 1228,572 1228,576 1232,587 1235,608 1234,615 1232,615 1231,610 1222,592 1212,576 1197,556 1185,544 1175,537 1161,531 1144,528 1132,529 1121,533 1109,545 1104,554 1102,553 1102,535 1098,531 1072,532 1050,537 1034,545 1019,556 1002,574 989,594 989,586 994,572 1002,558 1022,533 1030,518 1032,512 1032,505 1039,499 1041,495 1041,485 1048,471 1048,467 1052,458 1053,414 1051,408 1044,403 1024,405 1021,404 1045,392 1049,387 1050,380 1049,350 1052,339 1051,304 1049,300 1042,295 1034,294 1030,296 1029,291 1037,284 1044,282 1053,283 1072,276 1076,276 1092,267 1099,265 1105,259 1112,257 1132,244 1186,199 1206,179 Z M 1538,90 1525,93 1512,100 1495,117 1453,176 1424,213 1418,228 1418,244 1421,247 1426,246 1441,232 1442,233 1441,255 1444,312 1441,324 1441,348 1444,404 1442,416 1439,420 1432,413 1425,409 1422,409 1419,413 1419,416 1427,432 1442,449 1442,456 1438,482 1439,512 1437,555 1434,574 1429,590 1430,608 1427,617 1426,637 1419,686 1415,696 1413,720 1404,761 1404,769 1407,773 1412,771 1419,756 1438,704 1455,651 1459,643 1464,625 1468,601 1473,592 1476,581 1475,562 1482,539 1491,525 1489,473 1492,457 1492,428 1489,415 1490,383 1488,377 1491,337 1491,311 1488,290 1491,258 1490,180 1494,164 1508,133 1515,123 1541,98 1542,94 Z M 1536,95 1537,96 1511,120 1503,132 1490,161 1485,180 1486,268 1483,291 1486,309 1486,338 1483,374 1486,389 1484,416 1487,425 1488,454 1485,465 1486,524 1480,532 1471,558 1472,579 1463,601 1457,633 1427,720 1410,763 1409,759 1415,736 1420,706 1420,695 1425,680 1426,664 1431,636 1431,622 1435,609 1434,589 1438,578 1441,561 1443,528 1442,487 1446,462 1446,447 1433,432 1424,415 1425,414 1436,424 1441,426 1445,422 1448,412 1448,386 1446,379 1447,356 1445,326 1449,311 1449,300 1446,282 1447,231 1445,227 1441,226 1437,228 1424,242 1422,241 1422,233 1425,221 1429,214 1456,180 1501,117 1521,100 Z M 552,67 548,68 546,75 544,113 539,148 513,211 510,223 510,230 507,239 505,259 495,276 495,287 487,309 480,335 470,356 470,363 467,376 460,384 453,388 436,405 432,415 433,420 436,422 450,415 458,415 459,417 454,437 447,449 447,462 444,473 438,484 438,495 434,503 427,528 416,549 416,552 419,556 427,555 429,559 427,567 420,580 417,603 411,614 412,627 406,661 406,671 408,674 412,674 415,671 427,644 431,631 437,621 439,606 446,588 449,575 456,564 456,556 461,545 467,525 480,492 490,475 497,448 510,428 551,430 562,433 570,433 572,435 589,496 589,500 581,506 580,514 584,518 595,523 598,526 609,564 620,595 620,601 633,632 641,656 644,659 647,659 650,655 651,610 647,600 647,581 649,576 649,570 643,557 643,545 636,513 637,493 627,462 618,419 629,408 647,395 650,390 647,386 610,387 608,384 606,374 606,361 601,337 601,306 599,303 594,302 592,300 589,286 594,258 593,228 590,222 586,222 583,227 581,227 574,195 570,186 570,180 575,176 575,172 569,166 567,160 557,78 555,70 Z M 551,81 553,84 563,165 570,174 565,180 565,186 570,198 578,238 581,239 586,229 588,229 590,250 588,258 588,268 585,279 585,292 588,303 596,308 596,335 598,352 601,361 601,375 603,379 605,392 618,392 630,390 644,391 624,406 613,418 613,422 616,430 622,461 625,468 625,474 633,496 631,502 631,512 635,528 635,535 639,545 639,557 644,569 644,577 642,582 642,601 646,611 646,650 645,651 643,648 638,632 626,604 624,591 621,585 602,523 600,520 590,516 585,511 585,508 587,506 591,506 595,501 575,429 561,428 556,426 520,425 514,423 507,423 492,447 485,474 481,479 472,498 451,556 452,561 445,572 435,603 433,618 428,626 413,665 411,667 410,665 412,649 414,643 414,635 416,631 415,616 421,606 425,580 430,572 433,563 432,551 428,549 422,552 421,549 430,532 437,512 438,505 442,497 443,484 447,477 451,464 451,451 458,440 464,414 462,411 459,410 449,410 442,413 438,417 437,414 439,409 456,392 464,387 471,379 474,368 475,356 485,334 494,305 494,301 498,293 500,285 500,276 510,258 511,240 514,233 515,221 520,205 536,170 544,147 547,132 Z M 1648,41 1644,46 1641,56 1642,70 1604,134 1600,143 1588,158 1586,170 1575,180 1570,193 1555,216 1546,223 1510,259 1510,263 1513,266 1533,266 1542,271 1553,281 1558,289 1567,298 1573,300 1582,306 1591,318 1607,335 1622,343 1634,347 1647,356 1666,363 1675,374 1688,379 1700,393 1708,396 1718,406 1726,417 1725,435 1727,439 1727,470 1724,506 1712,528 1680,571 1669,583 1651,576 1624,555 1612,542 1607,534 1592,519 1584,506 1581,490 1583,446 1579,438 1570,393 1556,363 1553,360 1551,360 1547,364 1549,394 1552,411 1550,426 1552,449 1548,474 1535,522 1525,536 1522,543 1514,553 1513,557 1515,560 1520,561 1551,541 1559,538 1563,540 1574,550 1597,577 1609,594 1623,609 1630,626 1642,641 1654,662 1658,664 1662,661 1667,653 1681,638 1688,627 1707,605 1729,573 1752,534 1764,521 1771,516 1774,504 1792,463 1799,438 1806,423 1806,416 1794,391 1792,381 1788,372 1773,352 1769,350 1756,348 1747,344 1730,333 1721,330 1712,321 1698,316 1685,304 1678,301 1669,300 1662,296 1658,296 1643,285 1631,280 1608,257 1604,248 1604,242 1610,230 1612,220 1618,211 1619,200 1651,168 1660,168 1661,170 1656,176 1645,182 1635,192 1629,206 1627,228 1634,248 1642,257 1648,261 1669,271 1682,270 1686,266 1697,261 1710,249 1725,230 1726,224 1721,220 1718,220 1715,224 1714,223 1713,215 1717,202 1716,193 1702,179 1692,174 1684,166 1684,162 1689,157 1697,165 1707,172 1713,181 1716,190 1725,199 1728,208 1733,214 1733,226 1741,241 1746,260 1755,282 1769,310 1771,312 1775,312 1777,309 1776,291 1772,275 1769,248 1772,223 1771,194 1774,184 1778,178 1792,167 1792,161 1773,139 1733,113 1724,101 1714,97 1691,80 1682,71 1678,62 1675,59 1666,56 1657,48 1652,41 Z M 1667,184 1675,184 1684,188 1693,197 1700,212 1700,229 1696,242 1684,256 1675,260 1664,259 1652,251 1645,241 1641,224 1642,212 1648,198 1655,190 Z M 1650,45 1662,59 1669,61 1674,65 1677,72 1685,81 1711,101 1720,104 1730,117 1768,141 1779,152 1788,164 1778,171 1771,179 1766,195 1768,217 1764,247 1766,253 1765,262 1767,267 1767,275 1770,283 1772,302 1770,302 1753,265 1746,240 1739,226 1738,212 1732,205 1729,195 1720,187 1718,179 1710,168 1705,163 1698,160 1693,152 1687,147 1682,147 1676,150 1667,148 1658,153 1617,194 1613,201 1613,210 1607,218 1606,226 1599,242 1599,248 1605,261 1625,282 1642,290 1654,299 1661,300 1673,306 1680,306 1696,320 1707,323 1717,333 1726,336 1739,345 1751,351 1769,355 1786,378 1788,390 1792,395 1802,419 1795,435 1786,465 1770,501 1767,513 1760,518 1749,530 1723,573 1706,598 1658,658 1643,634 1634,623 1628,608 1615,594 1589,560 1567,537 1562,534 1556,534 1547,537 1522,554 1520,553 1541,520 1554,467 1556,454 1556,405 1554,397 1552,369 1554,369 1566,396 1574,432 1574,439 1578,447 1577,499 1582,513 1589,523 1604,538 1608,545 1617,555 1647,579 1668,588 1673,587 1687,570 1713,535 1728,510 1730,498 1732,440 1729,431 1731,423 1730,413 1714,394 1704,390 1692,376 1680,372 1670,360 1658,354 1652,353 1644,349 1640,345 1629,341 1607,329 1591,309 1581,299 1569,294 1559,281 1545,267 1533,261 1515,261 1541,234 1558,220 1575,193 1580,181 1590,172 1593,159 1603,147 1646,73 1646,55 Z M 446,3 443,3 441,5 402,79 393,94 375,117 375,130 372,135 366,141 364,146 353,157 348,167 337,179 336,189 331,196 328,204 313,222 312,226 315,229 317,229 318,232 310,239 307,251 300,258 289,277 288,288 278,301 270,316 269,327 257,356 255,350 256,340 249,323 249,309 242,293 236,263 232,254 232,243 220,222 216,199 206,189 201,179 194,170 189,160 186,149 175,140 143,108 122,81 91,50 83,34 81,32 77,32 75,34 75,58 89,88 104,138 104,159 109,164 112,162 114,165 114,176 120,187 124,204 125,226 132,243 135,260 135,291 126,309 126,317 131,326 130,344 134,356 134,382 123,400 113,412 107,424 106,430 107,437 109,439 112,439 126,425 133,420 135,421 135,425 130,438 135,458 134,467 130,477 133,493 133,504 130,515 134,524 132,530 121,540 120,545 124,557 124,565 118,585 116,601 108,625 93,652 93,656 96,659 100,659 103,657 105,658 97,676 90,686 91,697 81,713 80,722 76,731 76,735 66,765 59,781 59,795 53,807 52,835 55,837 59,836 63,829 83,776 100,740 126,697 138,684 144,667 152,655 157,644 174,594 179,584 192,565 184,546 182,527 183,488 185,481 184,456 188,439 188,409 184,401 184,395 188,377 195,364 195,360 189,350 188,284 190,284 199,311 197,325 209,342 218,359 220,367 227,379 231,394 234,399 242,429 246,460 250,471 250,478 258,520 261,523 263,523 266,521 268,502 270,495 269,487 271,483 275,449 278,444 278,435 280,428 287,416 287,406 291,399 292,390 305,368 305,361 307,357 315,350 316,338 336,298 339,286 348,276 349,277 347,285 348,291 345,300 347,327 343,338 347,353 346,384 349,392 343,406 347,419 346,444 342,454 342,499 339,523 336,532 336,546 324,567 324,572 326,574 331,575 331,602 333,605 337,605 340,601 349,578 352,566 355,561 356,553 363,542 363,537 372,515 380,502 396,484 400,456 405,441 405,436 401,427 399,388 399,357 405,345 405,341 399,333 397,327 396,314 398,263 396,257 399,198 410,175 410,168 408,166 404,166 400,169 399,166 417,103 447,20 449,6 Z M 442,13 443,16 414,97 398,155 394,165 394,175 396,177 404,172 405,175 394,198 392,233 392,262 394,268 392,284 392,328 396,337 401,343 396,351 394,360 395,410 397,430 401,439 396,452 392,481 374,502 364,521 358,535 358,541 352,551 351,558 346,568 346,572 336,597 336,572 333,569 328,569 340,548 340,535 344,523 344,513 346,505 347,453 351,442 351,415 348,409 348,405 353,396 353,388 350,381 351,349 348,337 352,322 350,300 353,293 352,284 354,279 355,254 348,264 345,272 335,284 328,305 325,308 322,317 317,324 311,337 311,347 303,355 300,367 289,386 287,397 282,407 282,415 275,428 274,442 270,450 267,477 264,488 265,498 262,513 256,484 255,471 250,455 246,425 243,412 240,407 239,398 235,391 235,386 231,376 224,364 222,356 211,336 202,324 205,314 195,283 193,281 185,260 183,259 182,280 184,351 189,358 190,363 182,378 182,382 180,385 181,390 179,394 179,402 183,409 183,440 179,457 181,475 178,489 177,527 179,547 187,564 170,590 167,597 166,605 153,637 152,643 137,670 136,677 132,684 122,694 116,703 85,759 57,829 57,809 63,797 63,783 67,776 75,753 80,733 85,722 85,717 95,699 94,688 101,679 110,657 108,652 103,652 99,655 97,654 113,625 120,604 122,589 129,563 129,557 125,543 137,532 139,525 138,520 135,516 138,503 135,476 139,467 139,451 135,438 140,425 139,415 136,413 123,421 112,433 111,432 111,428 115,418 131,397 139,382 139,359 135,343 136,326 130,314 131,309 138,298 140,290 139,255 137,243 129,223 129,206 126,190 119,176 119,166 116,158 109,158 109,139 106,126 94,88 80,58 78,39 80,39 86,52 112,77 145,118 182,152 186,166 199,185 201,191 212,201 214,220 227,243 228,258 232,266 232,272 238,296 244,309 244,323 248,330 249,337 251,340 250,351 256,372 265,348 268,344 269,337 273,331 274,318 281,310 283,302 292,290 293,280 298,273 301,264 311,254 313,243 320,237 323,232 322,226 318,226 317,224 328,213 334,203 334,200 341,188 341,181 351,171 355,165 356,160 366,151 379,133 380,126 378,121 384,112 393,103 404,85 Z M 1437,0 1434,0 1430,3 1410,38 1402,61 1398,68 1396,77 1385,95 1384,111 1374,141 1359,167 1348,179 1347,190 1341,206 1325,238 1317,249 1318,256 1324,260 1326,266 1326,292 1309,396 1304,409 1298,442 1296,440 1291,416 1282,359 1275,347 1275,338 1261,294 1253,284 1247,268 1224,225 1217,218 1213,222 1213,244 1218,268 1218,278 1225,295 1225,302 1235,329 1237,342 1242,353 1241,368 1248,381 1251,401 1265,455 1269,482 1269,512 1277,523 1281,534 1288,568 1291,592 1295,597 1297,597 1300,594 1306,567 1315,545 1319,507 1326,487 1331,478 1342,416 1351,389 1351,372 1353,364 1360,350 1359,337 1365,329 1372,295 1371,282 1373,249 1378,236 1382,218 1393,192 1394,181 1407,144 1419,93 1419,80 1424,53 1430,32 1440,7 1439,2 Z M 1433,8 1434,10 1427,27 1419,53 1414,81 1414,94 1403,140 1396,164 1389,180 1389,188 1381,206 1380,213 1375,225 1374,233 1370,240 1368,249 1367,297 1364,305 1361,325 1354,336 1355,349 1348,364 1347,385 1338,411 1326,477 1322,483 1315,504 1310,545 1304,554 1304,559 1296,588 1284,528 1281,520 1274,512 1274,482 1272,467 1263,425 1255,397 1252,378 1245,365 1246,350 1242,342 1237,319 1229,299 1229,291 1222,275 1222,263 1220,259 1220,251 1218,246 1217,226 1219,226 1229,246 1232,249 1243,271 1247,283 1258,299 1258,303 1270,337 1271,351 1278,363 1278,372 1285,404 1286,415 1298,468 1300,463 1309,409 1313,399 1313,394 1319,371 1329,309 1331,267 1329,259 1322,252 1322,250 1333,233 1346,206 1351,193 1352,182 1368,162 1379,141 1389,112 1390,95 1399,82 1409,53 1427,16 Z M 1433,7 1434,6 1435,8 1434,9 Z" fill="#000" fill-rule="evenodd"/>
<path d="M 645,188 661,222 663,229 663,241 665,244 668,244 671,247 675,256 675,263 681,272 681,282 685,289 688,303 689,318 689,398 687,404 686,443 689,452 684,468 670,543 666,555 666,561 664,566 664,582 674,558 674,552 679,542 691,530 696,537 693,546 694,553 712,533 742,530 774,529 790,532 798,537 805,544 817,565 817,568 826,588 826,565 821,548 821,536 819,531 816,492 816,416 814,424 812,426 812,431 808,440 806,450 800,461 799,471 790,479 787,484 763,493 728,501 716,500 708,491 705,479 707,463 704,456 704,448 706,442 705,378 707,369 708,329 705,321 705,304 712,283 706,280 685,236 678,229 665,208 Z M 913,185 910,211 903,245 901,249 892,258 883,263 854,269 847,269 836,266 820,267 812,263 799,264 774,256 731,251 759,264 775,276 783,279 789,287 795,303 796,315 793,334 783,363 787,379 789,370 792,365 792,361 799,346 808,333 831,307 841,301 863,296 879,297 883,299 889,306 889,317 892,322 890,341 893,351 890,394 894,410 892,443 895,456 895,473 892,495 896,504 897,511 897,547 895,583 888,599 889,608 891,603 896,598 899,600 900,603 901,639 897,653 901,670 906,813 908,766 910,751 913,668 917,652 917,646 914,637 915,611 919,604 915,593 915,585 919,578 925,584 928,599 929,596 927,578 918,556 920,504 923,497 922,412 926,397 924,369 927,337 926,325 932,316 932,309 935,305 948,297 959,296 978,302 990,311 991,316 998,324 1000,333 1002,335 1004,348 1006,351 1006,358 1010,377 1017,340 1014,299 1019,284 1033,271 1081,240 1089,233 1094,225 1079,235 1059,245 1017,260 999,264 987,263 972,267 948,265 933,259 921,245 916,216 Z M 1221,162 1207,179 1186,200 1132,245 1112,258 1105,260 1099,266 1092,268 1076,277 1072,277 1053,284 1044,283 1037,285 1030,291 1030,295 1034,293 1039,293 1046,296 1052,304 1053,339 1050,350 1051,380 1050,387 1045,393 1031,401 1022,404 1044,402 1052,408 1054,414 1053,458 1049,467 1049,471 1042,485 1042,495 1040,499 1033,505 1033,512 1031,518 1023,533 1003,558 995,572 991,582 989,593 1001,574 1019,555 1034,544 1050,536 1072,531 1098,530 1103,535 1104,553 1108,545 1121,532 1132,528 1144,527 1161,530 1175,536 1185,543 1198,556 1213,576 1223,592 1232,610 1233,615 1234,608 1231,587 1227,576 1227,572 1216,547 1220,540 1213,533 1209,522 1204,517 1183,505 1167,500 1107,501 1096,504 1088,504 1084,501 1082,497 1083,491 1086,487 1085,479 1088,473 1088,462 1091,455 1089,442 1090,415 1095,410 1102,408 1116,409 1120,411 1129,420 1136,429 1141,439 1152,445 1149,432 1142,413 1141,400 1143,390 1147,381 1157,369 1143,374 1138,374 1131,381 1122,386 1113,388 1095,387 1088,378 1090,343 1087,333 1090,326 1090,308 1098,302 1113,297 1152,288 1163,288 1174,291 1193,301 1183,286 1178,275 1176,265 1178,244 1189,217 1209,187 Z M 1536,96 1521,101 1502,117 1457,180 1430,214 1426,221 1423,233 1424,241 1437,227 1441,225 1445,226 1448,231 1447,282 1450,300 1450,311 1446,326 1448,356 1447,379 1449,386 1449,412 1446,422 1441,427 1436,425 1424,414 1434,432 1447,447 1447,462 1443,487 1444,528 1442,561 1440,574 1435,589 1436,609 1432,622 1432,636 1430,642 1426,680 1421,695 1421,706 1418,718 1418,725 1412,748 1410,762 1456,633 1462,601 1471,579 1470,558 1479,532 1485,524 1484,465 1487,454 1486,425 1483,416 1485,389 1482,374 1485,338 1485,309 1482,291 1485,268 1484,180 1489,161 1502,132 1510,120 Z M 551,82 549,122 545,147 537,170 521,205 516,221 515,233 512,240 511,258 501,276 501,285 499,293 495,301 495,305 486,334 476,356 475,368 472,379 464,388 456,393 440,409 438,416 442,412 449,409 459,409 462,410 465,414 459,440 452,451 452,464 450,472 444,484 443,497 439,505 438,512 431,532 422,549 422,551 429,548 433,551 434,563 431,572 426,580 422,606 416,616 417,631 415,635 415,643 411,666 427,626 432,618 434,603 444,572 451,561 450,556 471,498 480,479 484,474 491,447 507,422 514,422 520,424 556,425 576,429 596,501 591,507 587,507 586,511 590,515 600,519 603,523 622,585 625,591 626,601 645,650 645,611 641,601 641,582 643,577 643,569 638,557 638,545 634,535 634,528 630,512 630,502 632,496 624,474 624,468 621,461 615,430 612,422 612,418 630,400 643,391 605,393 603,390 602,379 600,375 600,361 597,352 595,335 595,308 591,307 587,303 584,292 584,279 587,268 587,258 589,250 587,229 583,238 579,240 577,238 575,231 575,224 572,216 569,198 564,186 564,180 569,174 564,169 561,160 557,120 Z M 541,264 543,265 549,301 553,316 554,328 559,340 559,349 562,355 562,364 569,393 567,395 513,394 509,388 509,381 513,361 518,350 518,346 522,336 523,324 527,317 528,307 Z M 1650,46 1647,55 1647,73 1604,147 1594,159 1591,172 1581,181 1576,193 1559,220 1541,235 1516,261 1533,260 1545,266 1560,281 1569,293 1581,298 1592,309 1607,328 1629,340 1640,344 1644,348 1652,352 1658,353 1670,359 1680,371 1692,375 1704,389 1714,393 1728,409 1732,416 1730,431 1733,440 1732,484 1729,510 1714,535 1673,588 1668,589 1659,586 1647,580 1630,567 1612,551 1603,538 1588,523 1578,507 1576,499 1577,447 1573,439 1573,432 1565,396 1553,369 1555,397 1557,405 1557,454 1555,467 1542,520 1531,539 1519,555 1547,536 1556,533 1562,533 1567,536 1590,560 1616,594 1629,608 1635,623 1644,634 1658,657 1705,598 1722,573 1745,534 1753,524 1766,513 1769,501 1785,465 1794,435 1801,419 1791,395 1787,390 1785,378 1769,356 1757,354 1739,346 1726,337 1717,334 1707,324 1696,321 1680,307 1673,307 1661,301 1654,300 1642,291 1625,283 1604,261 1598,248 1598,242 1603,232 1606,218 1612,210 1612,201 1616,194 1658,152 1667,147 1676,149 1682,146 1687,146 1694,152 1698,159 1705,162 1711,168 1719,179 1721,187 1730,195 1733,205 1739,212 1740,226 1747,240 1754,265 1772,303 1769,283 1766,275 1766,267 1764,262 1765,253 1763,247 1767,217 1765,195 1770,179 1778,170 1787,164 1778,152 1768,142 1730,118 1720,105 1711,102 1685,82 1676,72 1673,65 1669,62 1662,60 1652,50 Z M 443,13 405,85 394,103 385,112 379,121 381,126 380,133 367,151 357,160 356,165 352,171 342,181 342,188 335,200 335,203 329,213 318,224 323,226 324,232 321,237 314,243 312,254 302,264 302,267 294,280 294,288 284,302 282,310 275,318 274,331 270,337 269,344 266,348 264,356 256,373 254,371 254,367 250,357 250,340 248,337 247,330 243,323 243,309 237,296 231,272 231,266 226,254 226,243 214,223 211,210 211,201 200,191 198,185 185,166 181,152 144,118 111,77 85,52 79,39 81,58 95,88 107,126 110,139 110,158 113,156 117,158 120,166 120,176 127,190 130,206 130,223 138,243 140,255 141,290 139,298 131,312 137,326 136,343 140,359 140,382 136,391 116,418 111,433 123,420 136,412 140,415 141,425 136,438 140,451 140,467 136,476 136,483 139,495 139,503 136,516 139,520 140,525 138,532 126,543 130,557 130,563 123,589 121,604 114,625 98,654 103,651 108,651 111,657 102,679 95,688 96,699 86,717 86,722 81,733 77,750 68,776 64,783 64,797 58,809 59,819 57,828 84,759 115,703 121,694 131,684 135,677 136,670 151,643 152,637 165,605 166,597 169,590 186,564 178,547 176,527 177,489 180,475 178,457 182,440 182,409 178,402 178,394 180,390 179,385 181,382 181,378 189,363 189,360 183,351 181,265 183,258 186,260 192,273 206,314 203,324 212,336 223,356 225,364 232,376 236,386 236,391 240,398 241,407 244,412 247,425 251,455 256,471 256,478 262,512 264,498 263,488 266,477 269,450 273,442 274,428 281,415 281,407 286,397 288,386 299,367 302,355 310,347 310,337 316,324 321,317 324,308 327,305 334,284 344,272 352,256 355,253 356,254 356,269 353,284 354,293 351,300 353,322 349,337 352,349 351,381 354,388 354,396 349,405 349,409 352,415 352,442 348,453 347,505 345,513 345,523 341,535 341,548 329,569 333,568 337,572 336,596 342,577 345,572 345,568 350,558 351,551 357,541 357,535 363,521 373,502 391,481 395,452 400,439 396,430 394,410 393,360 395,351 400,343 395,337 391,328 391,284 393,272 391,262 391,233 393,198 405,172 396,178 393,175 393,165 397,155 413,97 Z M 1434,7 1428,16 1413,46 1400,82 1391,95 1390,112 1380,141 1369,162 1353,182 1352,193 1347,206 1334,233 1323,250 1323,252 1330,259 1332,267 1330,309 1320,371 1314,394 1314,399 1310,409 1301,463 1298,469 1294,458 1285,415 1284,404 1277,372 1277,363 1270,351 1269,337 1263,317 1258,306 1257,299 1246,283 1242,271 1218,226 1218,238 1221,251 1221,259 1223,263 1223,275 1230,291 1230,299 1238,319 1243,342 1247,350 1246,365 1253,378 1256,397 1264,425 1273,467 1275,482 1275,512 1282,520 1287,535 1293,563 1296,587 1303,559 1303,554 1309,545 1314,504 1321,483 1325,477 1337,411 1346,385 1347,364 1354,349 1353,336 1359,328 1363,305 1366,297 1367,249 1369,240 1373,233 1379,209 1388,188 1388,180 1399,151 1413,94 1413,81 1418,53 Z" fill="#fff" fill-rule="evenodd"/>
<path d="M 1667,185 1666,186 1663,186 1655,191 1649,198 1646,203 1643,212 1642,224 1643,225 1643,231 1646,241 1653,251 1664,258 1675,259 1676,258 1679,258 1684,255 1692,247 1695,242 1699,229 1699,212 1694,200 1684,189 1675,185 Z M 1671,192 1675,204 1675,207 1677,211 1677,216 1680,220 1680,223 1674,238 1673,251 1671,255 1669,251 1669,247 1667,242 1667,238 1665,235 1665,231 1661,224 1661,220 1664,215 1664,212 1669,199 1669,195 Z" fill="#e60000" fill-rule="evenodd"/>
</svg>
